<svg width="165" height="32" viewBox="0 0 165 32" fill="none" xmlns="http://www.w3.org/2000/svg">
<path fill-rule="evenodd" clip-rule="evenodd" d="M35.9869 0.0321496C35.6207 0.0681725 35.3424 0.160351 35.1352 0.314288C35.048 0.379089 34.9457 0.432523 34.908 0.433004C34.7784 0.434645 34.5264 0.579777 34.4033 0.723508C34.2359 0.919152 34.1821 1.19156 34.2036 1.73543C34.2159 2.0451 34.2459 2.24643 34.3062 2.42338C34.3569 2.57232 34.4064 2.8557 34.4284 3.12383C34.5544 4.65772 35.0052 5.38702 35.6307 5.06878C35.7799 4.99281 35.8389 4.92941 35.941 4.73485C36.0489 4.52936 36.0643 4.46584 36.0475 4.29457C36.0368 4.1845 36.0108 3.80626 35.9898 3.45404C35.9357 2.54722 35.8963 2.29718 35.7643 2.02397C35.6916 1.87352 35.6655 1.78098 35.6932 1.77153C35.8065 1.73275 36.7979 1.67291 37.3293 1.67275C38.1579 1.67251 39.9265 1.79591 40.1662 1.87071C40.41 1.94684 40.4206 1.96393 40.4116 2.26825C40.4071 2.42114 40.3701 2.6436 40.3293 2.7626C40.2489 2.99739 39.832 3.70075 39.6586 3.89432C39.5994 3.96036 39.5045 4.08644 39.4477 4.17449C39.3909 4.26255 39.301 4.39579 39.248 4.4706C39.0825 4.70395 39.1339 5.09736 39.3575 5.30865C39.4777 5.42236 39.8478 5.47003 40.0578 5.39891C40.2574 5.33135 40.6684 4.90396 40.889 4.53472C40.9941 4.35861 41.1449 4.12446 41.2239 4.01439C41.4329 3.72317 41.6436 3.26864 41.7299 2.92274C41.8666 2.37431 41.8074 1.7263 41.5979 1.47831C41.5674 1.44224 41.5302 1.35871 41.5151 1.29267C41.4723 1.10491 41.3924 1.00573 41.1624 0.854831C40.6421 0.513455 40.2528 0.391257 39.5017 0.333581C39.2984 0.317971 38.9915 0.26894 38.8198 0.224672C38.622 0.173599 38.3503 0.140618 38.0784 0.134615C37.8423 0.129411 37.4735 0.0952696 37.2589 0.0587265C36.854 -0.0101572 36.4941 -0.0176819 35.9869 0.0321496ZM18.6637 0.561165C18.4598 0.577095 17.9769 0.580497 17.5906 0.56869C17.006 0.550838 16.8521 0.558363 16.6735 0.613558C16.4312 0.688365 15.3339 0.75853 14.2735 0.767015C13.5161 0.773099 13.459 0.792391 13.3183 1.09058C13.2738 1.18488 13.203 1.29395 13.1611 1.33289C13.0499 1.43612 13.0328 1.61227 13.0997 1.96686C13.2049 2.52453 13.4431 2.9183 13.8078 3.13752C13.8986 3.19211 14.1986 3.31491 14.4745 3.41037C14.7502 3.50587 15.1252 3.64736 15.3076 3.72485C15.4901 3.80234 15.7142 3.87831 15.8057 3.89364C15.9193 3.91269 15.9858 3.94899 16.0155 4.00799C16.0393 4.05554 16.0914 4.13119 16.1311 4.17605C16.1716 4.22176 16.2287 4.39363 16.261 4.56634C16.3201 4.88338 16.6503 5.95254 16.8181 6.37044L16.9124 6.60515L16.7456 6.81072C16.6539 6.9238 16.379 7.24396 16.1349 7.52221C15.6094 8.12091 15.3944 8.40521 15.2006 8.7574C15.1219 8.90049 14.9759 9.12563 14.8763 9.25771C14.317 9.99902 13.4005 11.5457 12.6233 13.0601C12.3414 13.6094 12.0951 14.0239 11.8386 14.381C11.0413 15.4908 10.8979 15.72 10.8979 15.8842C10.8979 16.0554 10.7119 16.4581 9.90353 18.0369C9.62919 18.5728 9.34564 19.1549 9.27345 19.3305C9.12406 19.6937 8.94666 20.357 8.94666 20.5522C8.94666 20.6243 8.90275 20.8174 8.8491 20.9813C8.77994 21.1927 8.75153 21.3658 8.75153 21.5763C8.75153 21.9514 8.83255 22.1119 9.1808 22.4262C9.80753 22.9918 10.3817 23.1124 12.0881 23.0369C12.8669 23.0025 13.1792 23.0066 13.9418 23.0615C15.0604 23.142 15.9538 23.1439 16.5759 23.0669C16.8335 23.035 17.2311 23.0083 17.4594 23.0077C17.6878 23.007 18.0189 22.9783 18.1953 22.944C18.3717 22.9097 18.5217 22.8874 18.5286 22.8945C18.5577 22.9243 18.2149 23.7812 17.9495 24.3419C17.5723 25.1391 17.226 25.7617 16.7079 26.5742C16.4743 26.9404 16.2294 27.3581 16.1636 27.5024C15.9666 27.9341 15.4355 28.4014 14.8654 28.6445C14.4352 28.8279 12.597 29.3559 11.8546 29.5092C10.9289 29.7003 10.5193 29.7453 9.68812 29.7469C8.31579 29.7497 7.42229 29.5297 6.41007 28.9399C5.75161 28.5563 5.54201 28.4587 5.27567 28.4119C4.55813 28.2858 4.35922 28.1926 3.96055 27.7963C3.62974 27.4674 3.34584 27.0547 2.89596 26.2485C2.23255 25.0597 2.13858 24.7267 2.02061 23.1465C1.98771 22.7062 1.94958 22.283 1.93585 22.2059C1.89194 21.9595 1.92348 20.5989 1.98275 20.1846C2.05581 19.6739 2.24742 18.9218 2.37027 18.6637C2.42264 18.5536 2.48453 18.3867 2.50779 18.2927C2.5778 18.0098 2.69343 17.7689 2.8544 17.5707C2.93831 17.4674 3.07247 17.2478 3.15263 17.0827C3.37994 16.6144 3.91224 15.815 4.23946 15.4506C4.40305 15.2684 4.5369 15.0951 4.5369 15.0655C4.5369 14.9872 5.05468 14.4988 5.42369 14.229C5.90377 13.8779 6.78865 13.3199 7.23836 13.0847C7.54217 12.9258 7.69608 12.8694 7.87349 12.8521C8.00227 12.8395 8.15153 12.8054 8.20519 12.7762C8.32246 12.7124 8.73768 12.6222 8.85479 12.6352C8.90084 12.6403 9.29596 12.5869 9.73284 12.5166C10.2013 12.4412 10.7032 12.3856 10.9564 12.3809C11.1925 12.3766 11.4384 12.3524 11.5028 12.3272C11.5671 12.302 11.7066 12.2703 11.8126 12.2569C12.2929 12.196 12.4692 11.5998 12.1141 11.2366C11.9486 11.0673 11.7159 11.0102 11.0399 10.9733C10.8223 10.9614 10.5564 10.9221 10.4491 10.886C10.1561 10.7872 9.55013 10.7977 9.1808 10.9079C9.01983 10.9559 8.6434 11.0234 8.34428 11.0578C5.97955 11.3299 4.31809 12.2105 3.36242 13.6981C3.2187 13.9218 2.93877 14.2601 2.63169 14.5811C1.87536 15.3717 1.52906 15.887 0.963788 17.0627C0.292374 18.459 -0.00105083 19.8239 2.82706e-06 21.5455C0.000783315 22.8087 0.122149 23.7525 0.45811 25.1078C0.735886 26.2284 0.97132 26.9205 1.11692 27.0444C1.14927 27.072 1.18689 27.1464 1.20047 27.2099C1.24664 27.4255 1.52527 27.8022 2.00734 28.3007C2.96539 29.2916 4.59669 30.3916 5.94178 30.9537C6.18861 31.0569 6.52375 31.2098 6.68652 31.2936C7.06084 31.4863 7.6619 31.7016 8.08917 31.7961C8.33272 31.85 8.58947 31.8695 9.06373 31.8702C9.69409 31.871 9.71583 31.8682 10.0979 31.7352C10.4778 31.603 10.5102 31.5987 11.3271 31.5715C12.0919 31.546 12.2249 31.5304 12.8296 31.3952C13.7511 31.1891 14.4252 30.9493 15.2491 30.5345C16.302 30.0044 17.0114 29.4977 17.724 28.7668C19.1585 27.2955 19.9479 25.4648 19.9508 23.6028C19.9512 23.3474 19.9708 23.0817 19.9944 23.0124C20.0369 22.8873 20.0393 22.8863 20.3261 22.8797C20.485 22.876 20.6424 22.8715 20.6759 22.8697C20.7157 22.8675 20.7734 22.9582 20.8418 23.1307C20.9863 23.495 21.2023 23.8593 21.4547 24.1647C22.0057 24.8315 22.5869 25.1285 23.2296 25.0718C23.3906 25.0576 23.7857 25.0399 24.1076 25.0324C24.759 25.0172 25.0197 24.9626 25.4868 24.7436C26.0489 24.48 26.4617 24.1075 26.7233 23.6275C27.0491 23.0297 27.2772 21.9733 27.2384 21.241C27.2192 20.8774 27.2242 20.8436 27.3303 20.6206C27.392 20.4909 27.4429 20.3561 27.4434 20.3212C27.4438 20.2863 27.5245 20.1782 27.6227 20.081C27.7209 19.9839 27.9031 19.7514 28.0278 19.5642C28.1524 19.3771 28.5222 18.9268 28.8495 18.5636C29.1768 18.2004 29.5467 17.7771 29.6715 17.623C29.7963 17.4689 30.0064 17.2457 30.1385 17.127C30.2704 17.0083 30.5102 16.7381 30.6714 16.5266C30.8325 16.3151 31.451 15.6468 32.0457 15.0414C32.6405 14.436 33.2326 13.8236 33.3614 13.6805C33.4903 13.5374 33.6911 13.3293 33.8078 13.2181C33.9244 13.1069 34.2306 12.7196 34.4881 12.3576C34.8656 11.8269 35.1032 11.5479 35.7137 10.9188C36.1302 10.4895 36.5013 10.0875 36.5383 10.0255L36.6056 9.91265L36.7299 10.2656C36.7983 10.4598 36.9835 10.9338 37.1415 11.319C37.2996 11.7043 37.4644 12.1123 37.5077 12.2258L37.5865 12.4321L37.5007 12.4543C37.3193 12.5013 36.7905 12.981 35.7732 14.0212C34.9098 14.9041 34.6501 15.1964 34.3509 15.6217C33.5857 16.7095 33.3405 17.1327 32.9475 18.0433C32.8573 18.2524 32.7314 18.5226 32.6678 18.6437C32.449 19.0597 32.3693 19.2681 32.2692 19.6859C32.0686 20.5226 32.0406 20.8394 32.0206 22.498C32 24.2055 32.0196 24.5066 32.2063 25.3479C32.3797 26.1291 32.419 26.239 32.658 26.6087C32.779 26.7958 32.9959 27.2206 33.14 27.5526C33.5246 28.4385 33.7576 28.7582 34.4105 29.296C34.825 29.6375 35.6325 30.2117 35.8735 30.3363C36.457 30.6382 36.7935 30.7803 37.1086 30.8578C37.2985 30.9046 37.6583 31.0229 37.9081 31.1208C38.1579 31.2187 38.5881 31.3676 38.8642 31.4516C39.1403 31.5357 39.5154 31.6523 39.6979 31.7107C40.0786 31.8327 40.5501 31.8733 42.254 31.9307C42.8335 31.9502 43.4832 31.9779 43.6979 31.9922C43.9552 32.0094 44.2509 31.998 44.5662 31.9588C45.0305 31.9011 45.0558 31.8927 45.4443 31.6711C46.2008 31.2393 46.608 30.9425 47.6979 30.0288C47.9232 29.8398 48.2218 29.6255 48.3613 29.5524C48.9104 29.2647 49.1509 29.0202 49.5239 28.3698C49.6796 28.0984 49.8607 27.8636 50.1569 27.5493C50.6062 27.0724 50.7108 26.9162 51.2256 25.953C51.9944 24.5147 52.2174 23.6644 52.2451 22.0658C52.2532 21.6035 52.2705 21.1262 52.2837 21.0052C52.3195 20.6775 52.2397 20.0895 52.1403 19.9492C52.0954 19.8857 52.0272 19.6864 51.9888 19.5064C51.8936 19.0592 51.7283 18.6393 51.405 18.0233C51.2548 17.7371 50.9575 17.1427 50.7444 16.7024C50.4543 16.1033 50.2756 15.7911 50.0342 15.4616C49.6686 14.9627 48.853 14.11 48.4836 13.8406C48.3478 13.7416 48.0964 13.548 47.9249 13.4104C47.3048 12.9129 46.9069 12.7365 45.7456 12.4441C45.3062 12.3335 44.6481 12.1362 44.2832 12.0057C43.5579 11.7463 43.2087 11.6623 42.5857 11.5976C41.7007 11.5057 41.7584 11.5052 41.6115 11.6069C41.4158 11.7424 41.349 11.9467 41.4073 12.2315C41.4674 12.5257 41.606 12.7313 41.8336 12.8643C41.936 12.9242 42.0637 13.0129 42.1174 13.0614C42.3786 13.2976 43.0409 13.5644 43.5423 13.6355C43.6923 13.6568 43.9203 13.7103 44.0491 13.7545C44.1779 13.7986 44.6018 13.926 44.9911 14.0376C45.8433 14.2819 46.2474 14.4504 46.7898 14.7877C48.0601 15.5778 48.6589 16.2217 49.1244 17.2982C50.2272 19.8485 50.1646 19.6633 50.2355 20.5849C50.2575 20.8711 50.2914 21.2403 50.3108 21.4054C50.3342 21.6049 50.3314 21.8035 50.3025 21.9975C50.2697 22.2176 50.2703 22.3213 50.3049 22.4197C50.3423 22.5256 50.3365 22.6395 50.274 23.0284C49.9856 24.821 49.1611 26.5684 47.864 28.1359C47.5949 28.461 47.5577 28.4905 47.2604 28.6134C46.8911 28.766 46.6955 28.8948 46.2483 29.2798C46.069 29.4342 45.8293 29.6085 45.7157 29.6672C45.2331 29.9164 44.7701 30.1056 44.4784 30.1728C44.3067 30.2123 44.1064 30.2709 44.0333 30.3029C43.9136 30.3553 43.8844 30.3539 43.7406 30.2892C43.3872 30.13 42.3842 30.0487 41.7959 30.1315C41.5199 30.1704 41.3791 30.1718 41.2003 30.1375C41.0715 30.1127 40.4426 30.0564 39.8027 30.0122L38.6391 29.9319L38.2737 29.6969C38.0211 29.5345 37.7838 29.4214 37.5055 29.3308L37.1028 29.1997L36.732 28.8115C36.4514 28.5178 36.2569 28.3579 35.932 28.154C35.3403 27.7825 35.1664 27.6451 34.7613 27.2287L34.4101 26.8677L34.3027 26.4881C33.93 25.1704 33.734 23.5311 33.7859 22.1659C33.832 20.9537 33.9396 20.3151 34.1711 19.8793C34.2457 19.739 34.3531 19.4442 34.4099 19.224C34.5658 18.6196 34.6189 18.4951 34.7565 18.4108C34.8441 18.3571 34.9332 18.2249 35.0735 17.9401C35.3556 17.3675 35.8162 16.6766 36.1928 16.2612C36.3729 16.0625 36.6889 15.6921 36.8951 15.4381C37.384 14.8358 37.5806 14.6374 37.9255 14.3988L38.2097 14.202L38.3334 14.5317C38.4014 14.7129 38.5759 15.1494 38.721 15.5017C39.3901 17.1252 39.9964 18.9766 40.1095 19.7412C40.1523 20.0307 40.2268 20.2889 40.3843 20.6939C40.5513 21.1236 40.6114 21.3374 40.6495 21.6376C40.6766 21.8511 40.7199 22.0661 40.7458 22.1155C40.8079 22.2337 40.994 22.3291 41.1945 22.3454C41.2836 22.3526 41.4141 22.3802 41.4845 22.4067C41.6902 22.484 41.941 22.4247 42.1235 22.2556C42.2851 22.1058 42.4402 21.8347 42.4845 21.6247C42.5279 21.4184 42.4392 20.9424 42.3075 20.6748C42.2243 20.5058 42.1825 20.3587 42.1762 20.2128C42.1696 20.0607 42.1401 19.9619 42.0744 19.8716C41.9979 19.7662 41.9837 19.7038 41.9917 19.5079C42 19.3068 41.9818 19.2321 41.8698 19.0076C41.7974 18.8625 41.7278 18.6751 41.7152 18.5913C41.6893 18.4186 41.4032 17.7139 41.0448 16.9398C40.8605 16.5415 40.7976 16.3594 40.7815 16.1768C40.7614 15.9504 40.6454 15.6516 40.4804 15.4016C40.444 15.3466 40.3754 15.1491 40.3278 14.9628C40.2802 14.7765 40.1637 14.4613 40.0689 14.2623C39.9741 14.0634 39.8142 13.6755 39.7135 13.4003C39.6129 13.1252 39.4263 12.6659 39.2989 12.3797C39.1715 12.0935 39.0328 11.7663 38.9908 11.6526C38.9486 11.5388 38.8824 11.4037 38.8436 11.3524C38.7711 11.2566 38.5123 10.6556 38.3896 10.2984C38.3518 10.1883 38.2638 9.98117 38.194 9.83808C38.0175 9.47649 37.522 7.90814 37.4921 7.61667C37.4568 7.27206 37.2495 6.63837 37.1272 6.50093C37.0708 6.43757 36.9369 6.34319 36.8296 6.29115C36.6597 6.20878 36.5761 6.19649 36.1829 6.19617C35.8739 6.19589 35.674 6.17572 35.5497 6.13229C35.4008 6.08026 35.3428 6.07742 35.2277 6.11636C35.0167 6.18777 33.6579 6.17664 33.3369 6.10083C32.9045 5.99877 32.4211 5.98712 31.3271 6.05256C29.8932 6.13834 29.2152 6.13297 28.2821 6.02843C27.2966 5.918 26.0403 5.91107 25.096 6.01078C24.5248 6.0711 24.2891 6.0745 23.1643 6.03839C22.4597 6.01578 21.6462 5.97672 21.3564 5.95154C20.8059 5.90371 19.1376 5.88109 18.7063 5.9156L18.4562 5.93561L18.3264 5.41528C18.1482 4.70119 18.0188 4.35113 17.8648 4.16665C17.7868 4.07315 17.7289 3.95588 17.7209 3.87546L17.7076 3.74086L18.0198 3.68702C18.4403 3.6145 19.1183 3.41882 19.4711 3.2682C19.8795 3.09381 20.2818 2.81223 20.6077 2.47258C21.2165 1.83825 21.2871 1.2805 20.8117 0.863116C20.615 0.690447 20.4706 0.646419 19.932 0.594986C19.3031 0.534948 19.0766 0.528904 18.6637 0.561165ZM24.7906 7.8477C24.7798 7.85815 24.3232 7.88877 23.7759 7.91582C23.0121 7.95353 22.5177 7.95445 21.6491 7.91983C20.7055 7.8822 20.4244 7.8844 19.9577 7.93283C19.6498 7.96481 19.3886 8.00056 19.3772 8.01228C19.3658 8.02397 19.5154 8.36303 19.7096 8.76572C20.1359 9.64952 20.3547 10.1714 21.1823 12.2796C21.5323 13.1712 21.9136 14.1078 22.0296 14.3609C22.1456 14.6141 22.2824 14.9293 22.3335 15.0614C22.3847 15.1935 22.5142 15.4546 22.6215 15.6418C22.8636 16.0642 23.1264 16.6713 23.2094 16.9998C23.2439 17.1366 23.3197 17.3159 23.3777 17.3983C23.4357 17.4807 23.5245 17.6386 23.5748 17.7493C23.6752 17.9699 23.6579 17.9624 24.36 18.0888C24.8002 18.168 25.2986 18.4333 25.6928 18.7982L25.9246 19.0128L26.1665 18.7421C26.2996 18.5932 26.4937 18.3525 26.5981 18.2073C26.7024 18.062 27.4234 17.2948 28.2002 16.5023C28.977 15.7098 29.7855 14.8487 29.9968 14.5888C30.3526 14.1511 31.1338 13.3203 31.1895 13.3203C31.2028 13.3203 31.5026 13.0028 31.8558 12.6148C32.2089 12.2268 32.7369 11.6967 33.0291 11.4367C33.3212 11.1768 33.8766 10.6162 34.2633 10.1909C34.65 9.76572 35.1003 9.28537 35.2638 9.12351C35.4513 8.93803 35.5615 8.79738 35.5619 8.74327C35.5622 8.696 35.5778 8.63256 35.5965 8.60226C35.6195 8.56503 35.5845 8.47318 35.4886 8.31908L35.3467 8.09097L34.6635 8.02269C34.2878 7.98515 33.4361 7.9376 32.7709 7.91706C32.1056 7.89653 31.3945 7.86923 31.1906 7.85647C30.9867 7.84366 30.4071 7.85519 29.9028 7.88212C28.8582 7.93788 25.6597 7.96249 25.5707 7.91546C25.5019 7.87908 24.8193 7.8198 24.7906 7.8477ZM17.5007 8.87147C17.073 9.38123 16.9721 9.56159 16.7252 10.258C16.5326 10.8011 16.4019 11.022 15.9994 11.4848C15.5722 11.9759 15.2889 12.3447 15.1771 12.5554L15.0763 12.7454L15.3774 12.8719C16.039 13.1499 16.6914 13.6096 17.4036 14.2992C17.8749 14.7557 18.1625 15.114 18.6249 15.8208C18.8125 16.1076 19.0193 16.3821 19.0845 16.4308C19.1497 16.4795 19.2231 16.5815 19.2475 16.6573C19.2718 16.7331 19.386 16.9853 19.5012 17.2178C19.8814 17.9853 19.9374 18.617 19.6557 18.9604C19.5213 19.1242 19.1672 19.2567 18.9259 19.2335C18.7022 19.2119 18.5703 19.1023 18.4573 18.8438C18.3296 18.5519 17.3672 17.0904 17.0694 16.7363C16.674 16.2662 15.4107 15.0945 14.8479 14.676C14.7252 14.5847 14.5519 14.4386 14.4629 14.3512L14.3012 14.1924L14.0214 14.6069C13.8675 14.8348 13.6007 15.3095 13.4285 15.6618C13.0182 16.5008 12.701 17.036 12.2112 17.7148C11.7141 18.4038 11.6415 18.5304 11.4451 19.052C11.3585 19.2819 11.2201 19.5857 11.1374 19.7272C10.9944 19.972 10.7923 20.51 10.8291 20.5477C10.8386 20.5575 11.0644 20.5953 11.3307 20.6318C11.6967 20.6819 12.1629 20.6996 13.2393 20.7044C14.4649 20.7097 14.74 20.7223 15.2101 20.7945C15.9251 20.9044 16.1043 20.9187 17.372 20.9667C18.4193 21.0064 19.1522 21.0782 19.5418 21.179C19.6532 21.2079 19.8718 21.2227 20.0515 21.2135L20.366 21.1975L20.4105 20.8842C20.4641 20.5071 20.6278 20.0586 20.8201 19.7621C20.8978 19.6423 21.1913 19.3125 21.4723 19.0293L21.9831 18.5143L21.8684 18.3288C21.7154 18.0815 21.5924 17.7691 21.401 17.1427C21.2311 16.5865 20.8686 15.6943 20.6219 15.2252C20.539 15.0675 20.3547 14.6689 20.2125 14.3395C20.0703 14.0101 19.8414 13.5132 19.7038 13.2353C19.426 12.6744 19.117 11.8885 18.958 11.339C18.9006 11.1409 18.7478 10.7357 18.6182 10.4385C18.3111 9.73386 17.7753 8.59729 17.7504 8.59729C17.7396 8.59729 17.6273 8.72065 17.5007 8.87147ZM23.3662 19.9245C23.3232 19.9434 23.2398 19.9601 23.1807 19.9617C23.1006 19.9638 22.995 20.0442 22.7669 20.2765C22.4563 20.593 22.3813 20.7333 22.3132 21.1252C22.2998 21.2023 22.2611 21.332 22.2272 21.4136C22.1683 21.5556 22.17 21.5726 22.267 21.8139C22.3227 21.9524 22.3881 22.1469 22.4122 22.2459C22.4363 22.345 22.4871 22.4621 22.525 22.5061C22.563 22.5501 22.6697 22.7032 22.7621 22.8463C22.8546 22.9894 22.9851 23.1622 23.0523 23.2304C23.1685 23.3484 23.1947 23.3558 23.602 23.386C24.2848 23.4367 24.3726 23.43 24.6128 23.3094C24.9999 23.1152 25.193 22.7613 25.3551 21.9489C25.4331 21.5577 25.4368 21.4929 25.3896 21.3322C25.2918 20.9989 24.7716 20.4163 24.3538 20.1722C23.9587 19.9414 23.5566 19.8405 23.3662 19.9245Z" fill="white"/>
<path fill-rule="evenodd" clip-rule="evenodd" d="M75.8923 6.22042C75.5731 6.33898 75.0315 6.62754 74.6887 6.86175C74.0055 7.32855 72.8951 8.47482 72.6734 8.94207C72.3757 9.56937 72.5949 10.368 73.1402 10.6428C73.9305 11.0411 74.3072 10.9182 75.1472 9.98799C75.8809 9.17548 76.4334 8.79073 77.171 8.57879C78.3144 8.25029 78.5765 7.11943 77.6943 6.32231C77.3831 6.04118 77.2726 5.99617 76.9026 6.00024C76.6661 6.00287 76.2115 6.10195 75.8923 6.22042ZM67.3668 9.82215C67.0424 9.98572 66.9037 10.1374 66.6635 10.5916C66.2978 11.2832 66.1409 12.0084 66.0118 13.6035C65.8781 15.2559 65.4745 19.0504 65.4147 19.2183C65.3698 19.3441 65.0183 18.602 64.1701 16.5903C63.9896 16.1622 63.7012 15.1742 63.5225 14.3713C62.9811 11.9395 62.9846 11.9463 62.1029 11.6696C61.4778 11.4734 60.9619 11.5748 60.5647 11.972C60.3248 12.212 60.3082 12.2775 60.298 13.0289C60.2706 15.0392 60.2722 15.0452 62.1406 19.9434C62.3592 20.5163 62.7321 21.5149 62.9695 22.1624C63.8083 24.4507 64.4433 25.4804 65.2383 25.8416C65.6896 26.0466 65.8501 26.0499 66.465 25.8673C67.2798 25.6253 67.5386 25.1951 68.1764 23.0229C68.4946 21.9391 68.633 21.0845 68.6384 20.1699C68.6405 19.8212 68.7012 19.1079 68.7733 18.5849C68.9095 17.5964 69.0967 16.1338 69.3219 14.2971C69.3943 13.7072 69.4528 12.6679 69.452 11.9875C69.4506 10.8735 69.4302 10.7147 69.2467 10.3909C68.8247 9.64572 68.1322 9.43623 67.3668 9.82215ZM162.747 11.6858C162.104 12.0308 162.107 12.0036 162.107 16.4112C162.107 20.0567 162.12 20.3771 162.273 20.6624C162.726 21.5066 164.116 21.5066 164.568 20.6624C164.721 20.3771 164.734 20.0567 164.734 16.4112C164.734 12.7657 164.721 12.4453 164.568 12.16C164.364 11.7778 163.902 11.5204 163.421 11.5204C163.22 11.5204 162.917 11.5948 162.747 11.6858ZM110.002 11.7794C109.644 12.0153 108.901 12.9093 108.486 13.6035C107.73 14.8691 107.284 16.2999 106.722 19.2642C106.543 20.2106 106.321 21.1901 106.229 21.4408C106.135 21.6965 106.035 22.2926 106.002 22.7993C105.933 23.8462 106.046 24.1824 106.587 24.5444C106.864 24.7291 106.986 24.7512 107.538 24.7168C108.389 24.6637 108.971 24.5044 109.246 24.2502C109.531 23.986 109.724 23.3441 109.902 22.0719C109.979 21.5239 110.09 20.9737 110.149 20.8492C110.353 20.4173 111.55 20.1949 112.77 20.3622L113.182 20.4185L113.281 21.1094C113.336 21.4893 113.421 22.2047 113.472 22.6992C113.585 23.8055 113.723 24.0646 114.379 24.3953C115.223 24.8213 115.76 24.7327 116.415 24.0592C116.859 23.6026 117.094 23.0007 117.094 22.3213C117.094 21.8468 116.26 17.6837 115.946 16.5923C115.824 16.1689 115.581 15.476 115.405 15.0526C115.229 14.6292 114.987 14.027 114.867 13.7143C114.356 12.3792 114.071 12.0614 113.391 12.0676C113.161 12.0697 112.832 12.1465 112.659 12.2382C112.365 12.3948 112.326 12.396 112.025 12.2571C111.849 12.1756 111.623 12.0338 111.524 11.9419C111.125 11.5743 110.426 11.4997 110.002 11.7794ZM81.1687 11.8761C80.9814 11.9903 80.7791 12.2619 80.58 12.666L80.2766 13.282L80.2465 15.5032C80.2101 18.1789 80.3723 22.6257 80.5405 23.5693C80.6979 24.4513 80.9794 25.0961 81.3745 25.479L81.6906 25.7853L84.2442 25.7883C87.0543 25.7917 87.0181 25.7978 87.7324 25.2058C88.2187 24.8029 88.363 24.5363 88.4373 23.9032C88.5108 23.2784 88.3674 22.8306 87.9933 22.5158L87.7066 22.2746L85.6502 22.3169L83.5937 22.3593L83.5462 21.808C83.386 19.9489 83.3347 16.3708 83.4434 14.6391C83.5118 13.5504 83.5019 13.4083 83.3206 12.8632C83.0385 12.0156 82.6514 11.7012 81.8902 11.7019C81.62 11.702 81.3455 11.7683 81.1687 11.8761ZM74.4801 12.0341C74.1812 12.1091 73.6813 12.1809 73.3694 12.1937C73.0574 12.2066 72.7754 12.2437 72.7429 12.2764C72.7104 12.3089 72.5355 12.3355 72.3543 12.3355C71.9892 12.3355 71.3715 12.6869 70.9827 13.1159C70.7376 13.3861 70.0831 14.4398 69.7312 15.1308C69.1108 16.3486 69.6343 21.5238 70.6379 24.094C71.0039 25.0314 71.2933 25.2934 72.1976 25.5063C72.8394 25.6575 73.0488 25.6631 74.5515 25.57C75.4587 25.5137 76.6132 25.4678 77.1171 25.468C77.9093 25.4683 78.0657 25.4426 78.2736 25.2792C79.0864 24.6398 78.9059 23.2182 77.9318 22.5867C77.5643 22.3484 77.5337 22.3447 75.5474 22.2947C74.4407 22.2669 73.513 22.2218 73.4858 22.1946C73.4206 22.1294 73.2095 20.2321 73.262 20.1831C73.2844 20.1623 73.9548 20.0778 74.7518 19.9953C75.5488 19.9128 76.3304 19.8253 76.4888 19.801C76.8456 19.7459 77.3009 19.3331 77.3882 18.9855C77.4832 18.6068 77.297 17.4688 77.0963 17.2012C76.4793 16.3791 75.1671 16.1322 73.6197 16.5471C73.3457 16.6207 73.1113 16.6813 73.0989 16.6818C73.0865 16.6824 73.0762 16.52 73.0762 16.3209C73.0762 15.872 73.5138 15.345 74.1371 15.0433C74.6276 14.8058 75.1379 14.788 76.7896 14.9504C77.4123 15.0116 78.044 15.0589 78.1935 15.0555C78.7342 15.0433 79.2393 14.4772 79.3011 13.814C79.3338 13.4628 79.3002 13.3148 79.1299 13.0601C78.8843 12.6924 78.0292 12.2316 77.2008 12.0203C76.5232 11.8475 75.1975 11.8542 74.4801 12.0341ZM98.0998 11.9876C97.5773 12.1047 96.6171 12.7739 96.4211 13.1577C95.9935 13.9945 96.4607 15.0384 97.2678 15.0494C97.3973 15.0512 97.6238 15.0946 97.771 15.1459C97.9182 15.1973 98.3624 15.2685 98.7582 15.3044L99.4776 15.3696L99.5368 16.7282C99.5694 17.4754 99.5981 19.383 99.6007 20.9674C99.6053 23.7961 99.6092 23.8547 99.8132 24.2279C100.062 24.6826 100.648 25.0154 101.2 25.0154C101.672 25.0154 102.419 24.6474 102.779 24.2363L103.055 23.9222V19.5892V15.2562L104.074 15.2611C104.91 15.2651 105.18 15.2312 105.58 15.0723C106.181 14.8333 106.37 14.6676 106.504 14.2611C106.858 13.1878 106.126 12.3494 104.665 12.157C102.806 11.9121 98.8877 11.811 98.0998 11.9876ZM121.985 12.1572C120.656 12.2103 120.313 12.2538 119.865 12.4257C119.193 12.6834 118.627 13.233 118.412 13.836C118.087 14.7514 118.151 18.5078 118.536 21.0303C118.631 21.653 118.737 22.4885 118.772 22.887C118.85 23.7688 118.991 24.1337 119.429 24.5861C119.87 25.0404 120.204 25.212 120.66 25.2189C121.672 25.2342 122.254 24.3478 122.128 22.9826C122.097 22.6366 121.929 21.695 121.756 20.8901C121.583 20.0852 121.441 19.4003 121.441 19.3681C121.441 19.3358 121.859 19.3093 122.369 19.3091C123.118 19.3088 123.352 19.2758 123.577 19.1386C123.972 18.8975 124.192 18.3919 124.127 17.8702C124.033 17.1056 123.891 16.5818 123.709 16.3263C123.453 15.9658 122.7 15.6675 121.917 15.6156C121.555 15.5918 121.26 15.5404 121.26 15.5017C121.26 15.4628 121.472 15.3256 121.731 15.1965C122.165 14.9799 122.292 14.962 123.397 14.962C124.352 14.962 124.715 14.9999 125.203 15.1508C125.972 15.3882 126.316 15.3335 126.683 14.9159C127.369 14.1345 127.06 13.0285 126.025 12.555C125.574 12.3492 124.146 12.0487 123.761 12.0788C123.656 12.0871 122.856 12.1223 121.985 12.1572ZM90.792 12.2987C89.8561 12.5251 89.1226 12.9474 88.3741 13.6904C87.2131 14.8429 86.7462 16.1928 86.728 18.449C86.7199 19.4513 86.7466 19.6938 86.9074 20.0793C87.0113 20.3284 87.187 20.7674 87.2979 21.0548C87.6923 22.077 88.8238 23.4161 89.6487 23.837C90.689 24.3677 92.3407 24.4971 93.2918 24.1223C94.7998 23.5281 95.8155 21.5373 95.9551 18.9019C95.9841 18.3539 96.0705 17.733 96.147 17.5219C96.3926 16.8441 96.0296 15.1453 95.4494 14.2579C94.9524 13.4976 93.7606 12.3786 93.3168 12.2553C92.8228 12.1182 91.4399 12.1419 90.792 12.2987ZM153.415 12.3427C151.049 12.8765 149.789 14.2281 149.793 16.23C149.796 17.8 150.415 18.8589 151.674 19.4508C152.923 20.0378 153.993 20.5928 154.422 20.8764C155.115 21.3338 155.501 22.1349 155.234 22.5575C155.022 22.8922 154.031 22.847 152.482 22.4321C151.124 22.0682 150.548 22.1477 150.244 22.7404C150.101 23.0176 150.118 24.4184 150.267 24.6987C150.387 24.9263 151.078 25.5604 151.378 25.7186C151.479 25.772 152.274 25.8427 153.144 25.8755C155.062 25.9479 155.922 25.8246 156.913 25.3348C158.233 24.6823 158.735 23.7865 158.638 22.256C158.554 20.9268 158.448 20.6984 157.428 19.6601C156.938 19.1617 156.233 18.5523 155.86 18.3058C155.176 17.8527 154.103 17.3857 153.481 17.2695C153.124 17.203 153.08 17.0977 153.122 16.4112C153.157 15.8252 153.783 15.3478 154.63 15.2604C155.271 15.1942 155.771 15.3782 156.55 15.9677C157.318 16.549 157.409 16.5924 157.867 16.592C158.664 16.5913 159.119 16.0732 159.117 15.1704C159.115 14.2165 158.217 12.9262 157.275 12.5221C156.324 12.1145 154.751 12.0414 153.415 12.3427ZM130.774 12.3438C130.026 12.4905 129.455 12.849 128.723 13.6313C128.341 14.0394 127.885 14.5975 127.709 14.8715C127.533 15.1455 127.235 15.5039 127.045 15.6682C126.805 15.8765 126.684 16.0682 126.643 16.3022C126.612 16.4866 126.507 16.9764 126.41 17.3904C126.244 18.1011 126.242 18.1888 126.373 18.9529C126.45 19.3981 126.514 19.9356 126.515 20.1472C126.519 20.9922 127.336 22.7243 127.934 23.1564C128.143 23.3071 128.316 23.4759 128.319 23.5314C128.33 23.7338 128.725 24.135 129.042 24.2649C129.22 24.3383 129.471 24.4974 129.6 24.6184C129.728 24.7395 130.034 24.9153 130.279 25.0092C130.524 25.103 130.854 25.2322 131.013 25.2963C131.253 25.3933 131.434 25.3887 132.1 25.269C133.654 24.9892 134.751 24.391 135.458 23.4381C136.064 22.6219 136.312 22.0085 136.34 21.2567C136.354 20.908 136.394 20.1948 136.429 19.6717C136.476 18.98 136.455 18.4738 136.352 17.815C136.202 16.8476 135.643 14.9947 135.304 14.3347C135.007 13.7575 134.26 13.0066 133.722 12.7432C132.859 12.3211 131.695 12.1634 130.774 12.3438ZM145.644 12.5826C145.261 12.7904 144.536 13.9035 144.539 14.2801C144.54 14.4309 144.58 14.7175 144.628 14.9168C144.77 15.5079 144.99 17.4019 144.99 18.0373V18.6272L143.941 17.5872C143.364 17.0151 142.512 16.0783 142.048 15.5055C140.756 13.9103 140.366 13.6049 139.327 13.3738C138.549 13.2007 138.194 13.2709 137.81 13.6735C137.352 14.1536 137.35 14.1731 137.337 18.766C137.33 21.1322 137.292 23.3957 137.251 23.7962C137.186 24.4379 137.199 24.5667 137.36 24.883C137.588 25.3298 137.773 25.4992 138.289 25.733C139.458 26.2635 140.788 25.6587 141.142 24.4351C141.277 23.9703 141.289 23.6587 141.231 22.0576C141.195 21.0443 141.19 20.2152 141.221 20.2152C141.251 20.2152 141.477 20.3594 141.722 20.5358C142.021 20.7507 142.324 21.1017 142.64 21.6C142.9 22.009 143.323 22.5881 143.582 22.887C143.84 23.1859 144.301 23.7565 144.607 24.155C145.495 25.3122 146.079 25.6942 146.862 25.6292C147.499 25.5764 147.927 25.2343 148.319 24.464C148.7 23.7173 148.801 22.7806 148.684 21.1082C148.637 20.4427 148.572 18.4236 148.538 16.6214C148.479 13.5052 148.467 13.332 148.289 13.0891C148.014 12.7124 147.573 12.5423 146.71 12.4788C146.071 12.4318 145.89 12.4494 145.644 12.5826ZM111.911 14.7583C111.653 15.0524 111.261 16.0035 110.909 17.189L110.772 17.6498L111.465 17.4841C111.846 17.3929 112.292 17.318 112.457 17.3176L112.756 17.3169L112.694 16.5244C112.649 15.95 112.562 15.5761 112.378 15.1658C112.238 14.8545 112.107 14.5998 112.087 14.5998C112.066 14.5998 111.987 14.671 111.911 14.7583ZM91.4428 15.5369C91.2315 15.6441 90.9888 15.8542 90.9034 16.0036C90.6966 16.3652 90.4382 18.0325 90.4828 18.7174C90.5262 19.3845 91.1119 20.6385 91.4395 20.7656C91.9002 20.9444 92.3902 20.4656 92.5048 19.7246C92.5362 19.5212 92.6405 18.9349 92.7365 18.4218C93.0148 16.9358 92.948 16.3034 92.4533 15.74C92.103 15.341 91.9066 15.3015 91.4428 15.5369ZM130.959 15.5871C130.695 15.8707 130.383 16.6659 130.264 17.3622C130.191 17.786 129.9 18.4037 129.772 18.4037C129.565 18.4037 129.687 19.2104 129.979 19.7771C130.339 20.4744 130.837 20.8436 131.716 21.0643C132.969 21.3792 133.326 21.0242 133.441 19.3493C133.514 18.2874 133.377 17.5761 132.9 16.547C132.523 15.7331 132.182 15.4089 131.639 15.3477C131.265 15.3055 131.202 15.3276 130.959 15.5871ZM163.046 22.7188C162.752 22.783 162.099 23.3824 161.96 23.7164C161.705 24.3253 161.854 24.8763 162.394 25.3311C162.656 25.5517 162.744 25.5739 163.214 25.5398C163.681 25.5061 163.783 25.4608 164.109 25.1454C164.736 24.5381 164.873 24.0732 164.608 23.441C164.383 22.9026 163.684 22.5794 163.046 22.7188Z" fill="white"/>
</svg>
