<svg width="79" height="48" viewBox="0 0 79 48" fill="none" xmlns="http://www.w3.org/2000/svg">
<path fill-rule="evenodd" clip-rule="evenodd" d="M53.9804 0.0482245C53.4311 0.102259 53.0136 0.240526 52.7028 0.471432C52.5719 0.568634 52.4186 0.648785 52.362 0.649505C52.1676 0.651967 51.7896 0.869665 51.605 1.08526C51.3538 1.37873 51.2731 1.78735 51.3055 2.60314C51.3239 3.06766 51.3689 3.36965 51.4593 3.63508C51.5354 3.85848 51.6095 4.28355 51.6426 4.68574C51.8316 6.98658 52.5078 8.08053 53.446 7.60317C53.6699 7.48922 53.7583 7.39412 53.9116 7.10227C54.0734 6.79404 54.0964 6.69876 54.0713 6.44185C54.0551 6.27675 54.0162 5.70939 53.9847 5.18106C53.9036 3.82083 53.8444 3.44578 53.6464 3.03596C53.5373 2.81027 53.4983 2.67147 53.5398 2.6573C53.7097 2.59912 55.1969 2.50936 55.9939 2.50912C57.2368 2.50876 59.8897 2.69386 60.2493 2.80607C60.6151 2.92026 60.6309 2.9459 60.6175 3.40237C60.6107 3.63171 60.5552 3.96541 60.494 4.1439C60.3733 4.49608 59.748 5.55113 59.4879 5.84147C59.3991 5.94054 59.2568 6.12966 59.1715 6.26174C59.0863 6.39382 58.9515 6.59369 58.8719 6.7059C58.6238 7.05592 58.7009 7.64604 59.0362 7.96298C59.2166 8.13355 59.7717 8.20505 60.0868 8.09836C60.3861 7.99702 61.0027 7.35593 61.3335 6.80208C61.4912 6.53791 61.7173 6.18669 61.8358 6.02159C62.1494 5.58475 62.4654 4.90296 62.5948 4.38411C62.7999 3.56147 62.7111 2.58945 62.3968 2.21746C62.3511 2.16336 62.2953 2.03806 62.2727 1.939C62.2084 1.65736 62.0886 1.50859 61.7436 1.28225C60.9632 0.770182 60.3792 0.586886 59.2526 0.500371C58.9476 0.476956 58.4873 0.403409 58.2297 0.337007C57.933 0.260399 57.5255 0.210928 57.1175 0.201922C56.7634 0.194117 56.2102 0.142904 55.8883 0.0880897C55.281 -0.0152358 54.7411 -0.0265229 53.9804 0.0482245ZM27.9956 0.841747C27.6897 0.865642 26.9654 0.870745 26.3858 0.853034C25.509 0.826257 25.2782 0.837544 25.0102 0.920337C24.6468 1.03255 23.0008 1.13779 21.4102 1.15052C20.2741 1.15965 20.1886 1.18859 19.9775 1.63587C19.9107 1.77732 19.8046 1.94092 19.7416 1.99934C19.5748 2.15418 19.5492 2.41841 19.6496 2.95028C19.8074 3.78679 20.1646 4.37745 20.7117 4.70627C20.8479 4.78817 21.298 4.97236 21.7117 5.11555C22.1254 5.2588 22.6878 5.47104 22.9615 5.58727C23.2351 5.70351 23.5713 5.81746 23.7086 5.84045C23.8789 5.86903 23.9788 5.92349 24.0232 6.01198C24.059 6.08331 24.137 6.19678 24.1967 6.26408C24.2573 6.33264 24.3431 6.59045 24.3914 6.84951C24.4801 7.32507 24.9754 8.92881 25.2272 9.55567L25.3685 9.90773L25.1184 10.2161C24.9808 10.3857 24.5686 10.8659 24.2023 11.2833C23.4141 12.1814 23.0916 12.6078 22.8009 13.1361C22.6828 13.3507 22.4639 13.6884 22.3144 13.8866C21.4755 14.9985 20.1008 17.3186 18.935 19.5902C18.5121 20.4141 18.1427 21.0359 17.758 21.5714C16.562 23.2362 16.3468 23.5801 16.3468 23.8262C16.3468 24.0831 16.0678 24.6871 14.8553 27.0554C14.4438 27.8592 14.0185 28.7323 13.9102 28.9957C13.6861 29.5406 13.42 30.5355 13.42 30.8283C13.42 30.9365 13.3541 31.2261 13.2736 31.472C13.1699 31.789 13.1273 32.0487 13.1273 32.3644C13.1273 32.9271 13.2488 33.1678 13.7712 33.6393C14.7113 34.4877 15.5726 34.6687 18.1322 34.5554C19.3004 34.5037 19.7688 34.5099 20.9127 34.5922C22.5906 34.713 23.9308 34.7158 24.8639 34.6003C25.2502 34.5525 25.8466 34.5125 26.1892 34.5115C26.5317 34.5105 27.0284 34.4675 27.293 34.416C27.5576 34.3646 27.7825 34.3311 27.7929 34.3417C27.8365 34.3865 27.3223 35.6717 26.9243 36.5128C26.3584 37.7086 25.8389 38.6425 25.0619 39.8612C24.7115 40.4106 24.3441 41.0371 24.2453 41.2536C23.95 41.9011 23.1532 42.602 22.2981 42.9667C21.6528 43.2419 18.8954 44.0339 17.782 44.2638C16.3933 44.5505 15.779 44.6179 14.5322 44.6204C12.4737 44.6245 11.1334 44.2945 9.61511 43.4099C8.62742 42.8344 8.31302 42.6881 7.91351 42.6178C6.83719 42.4286 6.53883 42.2889 5.94082 41.6944C5.44461 41.2011 5.01876 40.582 4.34395 39.3727C3.34882 37.5895 3.20787 37.0901 3.03091 34.7198C2.98157 34.0593 2.92438 33.4244 2.90377 33.3089C2.83792 32.9392 2.88521 30.8983 2.97413 30.277C3.08371 29.5109 3.37113 28.3828 3.5554 27.9955C3.63396 27.8304 3.72679 27.58 3.76168 27.439C3.8667 27.0147 4.04014 26.6534 4.2816 26.356C4.40746 26.201 4.60871 25.8717 4.72894 25.624C5.06992 24.9216 5.86836 23.7225 6.35919 23.176C6.60457 22.9027 6.80535 22.6427 6.80535 22.5982C6.80535 22.4808 7.58201 21.7482 8.13554 21.3435C8.85565 20.8169 10.183 19.9799 10.8575 19.627C11.3133 19.3887 11.5441 19.3042 11.8102 19.2782C12.0034 19.2593 12.2273 19.208 12.3078 19.1643C12.4837 19.0686 13.1065 18.9334 13.2822 18.9528C13.3513 18.9605 13.9439 18.8804 14.5993 18.7749C15.302 18.6618 16.0548 18.5784 16.4346 18.5714C16.7888 18.5649 17.1575 18.5286 17.2541 18.4908C17.3507 18.4529 17.5599 18.4055 17.7189 18.3853C18.4394 18.294 18.7037 17.3997 18.1712 16.8549C17.923 16.6009 17.5739 16.5153 16.5598 16.46C16.2334 16.4421 15.8346 16.3832 15.6736 16.329C15.2341 16.1809 14.3252 16.1966 13.7712 16.3619C13.5297 16.4339 12.9651 16.5351 12.5164 16.5867C8.96933 16.9949 6.47714 18.3158 5.04363 20.5472C4.82804 20.8827 4.40816 21.3901 3.94754 21.8716C2.81304 23.0576 2.29358 23.8305 1.44568 25.594C0.43856 27.6885 -0.00157625 29.7358 4.24059e-06 32.3182C0.00117497 34.2131 0.183224 35.6288 0.687165 37.6616C1.10383 39.3426 1.45698 40.3807 1.67538 40.5666C1.72391 40.608 1.78034 40.7197 1.80071 40.8148C1.86996 41.1382 2.28791 41.7033 3.01101 42.4511C4.44808 43.9375 6.89503 45.5874 8.91267 46.4306C9.28291 46.5853 9.78562 46.8147 10.0298 46.9404C10.5913 47.2295 11.4928 47.5525 12.1338 47.6942C12.4991 47.775 12.8842 47.8043 13.5956 47.8052C14.5411 47.8065 14.5737 47.8023 15.1468 47.6028C15.7167 47.4045 15.7654 47.3981 16.9907 47.3572C18.1379 47.319 18.3373 47.2956 19.2444 47.0928C20.6267 46.7837 21.6378 46.424 22.8736 45.8018C24.453 45.0066 25.5171 44.2465 26.586 43.1502C28.7378 40.9432 29.9219 38.1972 29.9263 35.4041C29.9268 35.0211 29.9562 34.6226 29.9916 34.5186C30.0554 34.3309 30.059 34.3295 30.4891 34.3195C30.7274 34.314 30.9636 34.3072 31.0139 34.3045C31.0736 34.3012 31.1601 34.4373 31.2627 34.696C31.4795 35.2425 31.8034 35.789 32.182 36.2471C33.0086 37.2472 33.8803 37.6928 34.8444 37.6078C35.0858 37.5865 35.6785 37.5598 36.1614 37.5486C37.1385 37.5258 37.5296 37.4439 38.2301 37.1154C39.0734 36.72 39.6925 36.1613 40.085 35.4412C40.5737 34.5446 40.9157 32.9599 40.8576 31.8615C40.8287 31.316 40.8362 31.2654 40.9954 30.9309C41.0879 30.7363 41.1643 30.5342 41.165 30.4818C41.1657 30.4294 41.2868 30.2673 41.434 30.1216C41.5813 29.9759 41.8547 29.627 42.0417 29.3464C42.2286 29.0657 42.7833 28.3903 43.2742 27.8454C43.7652 27.3006 44.32 26.6657 44.5073 26.4345C44.6945 26.2034 45.0097 25.8686 45.2077 25.6905C45.4057 25.5125 45.7654 25.1072 46.0071 24.79C46.2488 24.4727 47.1765 23.4701 48.0686 22.5621C48.9608 21.654 49.8489 20.7354 50.0422 20.5208C50.2355 20.3061 50.5367 19.994 50.7117 19.8272C50.8866 19.6603 51.3458 19.0794 51.7322 18.5363C52.2984 17.7403 52.6548 17.3219 53.5706 16.3781C54.1953 15.7342 54.7519 15.1313 54.8075 15.0382L54.9084 14.869L55.0949 15.3984C55.1974 15.6896 55.4752 16.4007 55.7123 16.9785C55.9493 17.5564 56.1965 18.1685 56.2615 18.3387L56.3798 18.6481L56.2511 18.6814C55.979 18.7519 55.1858 19.4714 53.6599 21.0318C52.3647 22.3562 51.9751 22.7947 51.5263 23.4326C50.3786 25.0643 50.0107 25.6991 49.4213 27.0649C49.2859 27.3786 49.0971 27.7839 49.0016 27.9655C48.6735 28.5895 48.554 28.9022 48.4038 29.5289C48.1029 30.7839 48.0609 31.2592 48.0309 33.747C48 36.3083 48.0294 36.7599 48.3094 38.0219C48.5695 39.1937 48.6286 39.3585 48.987 39.9131C49.1685 40.1937 49.4938 40.8309 49.71 41.3289C50.287 42.6577 50.6364 43.1373 51.6158 43.9441C52.2375 44.4562 53.4487 45.3175 53.8102 45.5045C54.6855 45.9573 55.1903 46.1704 55.6629 46.2868C55.9478 46.3569 56.4875 46.5344 56.8622 46.6813C57.2368 46.8281 57.8822 47.0513 58.2963 47.1774C58.7104 47.3035 59.2732 47.4784 59.5468 47.5661C60.1178 47.7491 60.8252 47.81 63.381 47.896C64.2502 47.9253 65.2249 47.9669 65.5468 47.9883C65.9329 48.0141 66.3763 47.9971 66.8493 47.9382C67.5457 47.8516 67.5838 47.8391 68.1664 47.5066C69.3012 46.8589 69.9121 46.4137 71.5468 45.0432C71.8849 44.7597 72.3327 44.4382 72.5419 44.3285C73.3657 43.8971 73.7264 43.5302 74.2859 42.5547C74.5194 42.1475 74.7911 41.7954 75.2353 41.3239C75.9093 40.6087 76.0662 40.3743 76.8384 38.9296C77.9916 36.772 78.3261 35.4967 78.3677 33.0987C78.3797 32.4053 78.4058 31.6893 78.4256 31.5077C78.4792 31.0162 78.3595 30.1342 78.2105 29.9237C78.1431 29.8286 78.0409 29.5297 77.9833 29.2595C77.8404 28.5888 77.5924 27.9589 77.1075 27.0349C76.8823 26.6056 76.4363 25.7141 76.1165 25.0536C75.6814 24.155 75.4135 23.6867 75.0513 23.1925C74.503 22.444 73.2795 21.165 72.7255 20.7609C72.5217 20.6123 72.1445 20.3219 71.8873 20.1156C70.9572 19.3694 70.3603 19.1047 68.6184 18.6662C67.9593 18.5002 66.9722 18.2043 66.4249 18.0085C65.3368 17.6194 64.813 17.4935 63.8785 17.3964C62.551 17.2586 62.6376 17.2578 62.4172 17.4104C62.1238 17.6136 62.0236 17.9201 62.1109 18.3472C62.2012 18.7885 62.409 19.097 62.7504 19.2965C62.904 19.3863 63.0956 19.5193 63.1761 19.592C63.5679 19.9463 64.5613 20.3466 65.3134 20.4533C65.5384 20.4852 65.8805 20.5654 66.0736 20.6317C66.2668 20.6979 66.9026 20.889 67.4867 21.0564C68.7649 21.4228 69.3711 21.6756 70.1847 22.1816C72.0901 23.3666 72.9884 24.3326 73.6866 25.9472C75.3408 29.7728 75.2469 29.4949 75.3532 30.8773C75.3862 31.3066 75.4371 31.8605 75.4662 32.1081C75.5013 32.4073 75.4972 32.7052 75.4538 32.9962C75.4045 33.3265 75.4054 33.482 75.4574 33.6295C75.5134 33.7884 75.5047 33.9593 75.4109 34.5425C74.9783 37.2315 73.7416 39.8527 71.796 42.2039C71.3924 42.6915 71.3366 42.7357 70.8906 42.9201C70.3366 43.149 70.0433 43.3422 69.3724 43.9198C69.1034 44.1513 68.744 44.4127 68.5736 44.5007C67.8496 44.8745 67.1552 45.1583 66.7176 45.2591C66.46 45.3185 66.1596 45.4064 66.0499 45.4543C65.8705 45.5329 65.8267 45.5309 65.6109 45.4337C65.0808 45.195 63.5763 45.0731 62.6938 45.1973C62.2799 45.2556 62.0686 45.2577 61.8005 45.2062C61.6073 45.1691 60.6639 45.0845 59.704 45.0183L57.9587 44.8979L57.4106 44.5453C57.0317 44.3017 56.6758 44.132 56.2582 43.9962L55.6541 43.7995L55.098 43.2173C54.6771 42.7766 54.3854 42.5369 53.898 42.2309C53.0104 41.6737 52.7497 41.4677 52.1419 40.843L51.6151 40.3016L51.454 39.7321C50.8951 37.7556 50.601 35.2967 50.6788 33.2488C50.7479 31.4305 50.9093 30.4726 51.2567 29.8189C51.3685 29.6085 51.5296 29.1662 51.6149 28.836C51.8487 27.9295 51.9283 27.7427 52.1347 27.6162C52.2662 27.5357 52.3998 27.3373 52.6102 26.9101C53.0334 26.0512 53.7242 25.0149 54.2892 24.3917C54.5593 24.0937 55.0334 23.5382 55.3426 23.1572C56.0759 22.2537 56.371 21.9561 56.8882 21.5982L57.3146 21.303L57.5001 21.7975C57.6022 22.0694 57.8638 22.7242 58.0815 23.2525C59.0851 25.6878 59.9946 28.4649 60.1643 29.6118C60.2285 30.046 60.3402 30.4333 60.5764 31.0408C60.827 31.6854 60.9172 32.0061 60.9743 32.4564C61.0149 32.7767 61.0799 33.0992 61.1187 33.1732C61.2118 33.3505 61.491 33.4937 61.7918 33.5181C61.9253 33.529 62.1211 33.5703 62.2267 33.61C62.5353 33.726 62.9114 33.637 63.1852 33.3834C63.4277 33.1587 63.6604 32.752 63.7267 32.4371C63.7918 32.1276 63.6588 31.4136 63.4613 31.0122C63.3365 30.7586 63.2738 30.5381 63.2643 30.3192C63.2544 30.091 63.2102 29.9429 63.1116 29.8073C62.9968 29.6493 62.9755 29.5557 62.9875 29.2619C63 28.9603 62.9727 28.8481 62.8047 28.5114C62.6961 28.2937 62.5917 28.0127 62.5728 27.887C62.5339 27.6279 62.1048 26.5709 61.5673 25.4097C61.2907 24.8122 61.1964 24.5391 61.1722 24.2652C61.1422 23.9256 60.9681 23.4774 60.7205 23.1024C60.666 23.0199 60.5631 22.7236 60.4917 22.4442C60.4204 22.1647 60.2456 21.6919 60.1034 21.3935C59.9612 21.0951 59.7213 20.5133 59.5703 20.1005C59.4193 19.6877 59.1395 18.9988 58.9483 18.5695C58.7573 18.1403 58.5492 17.6495 58.4861 17.4788C58.423 17.3082 58.3236 17.1056 58.2653 17.0285C58.1567 16.8849 57.7684 15.9834 57.5844 15.4476C57.5278 15.2825 57.3957 14.9718 57.2909 14.7571C57.0262 14.2147 56.283 11.8622 56.2382 11.425C56.1852 10.9081 55.8743 9.95756 55.6908 9.75139C55.6063 9.65635 55.4054 9.51478 55.2444 9.43673C54.9895 9.31317 54.8641 9.29474 54.2743 9.29426C53.8108 9.29384 53.5109 9.26358 53.3246 9.19844C53.1012 9.12039 53.0142 9.11613 52.8415 9.17455C52.5251 9.28165 50.4868 9.26496 50.0054 9.15125C49.3567 8.99815 48.6317 8.98068 46.9907 9.07884C44.8398 9.20751 43.8228 9.19946 42.4231 9.04264C40.9449 8.877 39.0604 8.86661 37.6441 9.01616C36.7873 9.10664 36.4336 9.11174 34.7465 9.05759C33.6896 9.02367 32.4693 8.96507 32.0346 8.92731C31.2089 8.85556 28.7064 8.82164 28.0595 8.87339L27.6844 8.90341L27.4896 8.12292C27.2223 7.05178 27.0282 6.52669 26.7972 6.24997C26.6802 6.10972 26.5933 5.93381 26.5814 5.8132L26.5615 5.61129L27.0297 5.53054C27.6604 5.42175 28.6775 5.12822 29.2066 4.9023C29.8192 4.64071 30.4227 4.21835 30.9116 3.70886C31.8247 2.75738 31.9307 1.92075 31.2176 1.29467C30.9225 1.03567 30.706 0.969628 29.898 0.892479C28.9547 0.802422 28.6149 0.793356 27.9956 0.841747ZM37.1858 11.7716C37.1697 11.7872 36.4849 11.8331 35.6639 11.8737C34.5182 11.9303 33.7766 11.9317 32.4736 11.8797C31.0583 11.8233 30.6365 11.8266 29.9366 11.8993C29.4748 11.9472 29.083 12.0008 29.0658 12.0184C29.0487 12.036 29.273 12.5445 29.5644 13.1486C30.2039 14.4743 30.532 15.2571 31.7734 18.4194C32.2984 19.7568 32.8703 21.1617 33.0444 21.5414C33.2184 21.9212 33.4236 22.394 33.5003 22.5921C33.577 22.7902 33.7713 23.182 33.9322 23.4626C34.2954 24.0963 34.6895 25.0069 34.8141 25.4997C34.8659 25.7049 34.9795 25.9739 35.0666 26.0975C35.1536 26.221 35.2867 26.4579 35.3622 26.6239C35.5128 26.9549 35.4868 26.9436 36.54 27.1332C37.2003 27.252 37.9479 27.6499 38.5393 28.1973L38.887 28.5192L39.2498 28.1131C39.4493 27.8898 39.7406 27.5288 39.8971 27.3109C40.0536 27.0931 41.1351 25.9422 42.3003 24.7535C43.4655 23.5647 44.6783 22.2731 44.9953 21.8832C45.5289 21.2267 46.7007 19.9804 46.7842 19.9804C46.8042 19.9804 47.254 19.5043 47.7837 18.9223C48.3134 18.3403 49.1054 17.545 49.5436 17.1551C49.9818 16.7652 50.815 15.9243 51.395 15.2864C51.9751 14.6486 52.6504 13.9281 52.8958 13.6853C53.177 13.407 53.3423 13.1961 53.3428 13.1149C53.3433 13.044 53.3667 12.9488 53.3947 12.9034C53.4293 12.8476 53.3768 12.7098 53.2329 12.4786L53.02 12.1365L51.9953 12.034C51.4317 11.9777 50.1542 11.9064 49.1563 11.8756C48.1584 11.8448 47.0917 11.8039 46.7858 11.7847C46.48 11.7655 45.6107 11.7828 44.8541 11.8232C43.2873 11.9068 38.4895 11.9437 38.356 11.8732C38.2528 11.8186 37.2289 11.7297 37.1858 11.7716ZM26.2511 13.3072C25.6095 14.0718 25.4581 14.3424 25.0877 15.387C24.7989 16.2017 24.6029 16.533 23.9991 17.2272C23.3583 17.9639 22.9334 18.5171 22.7657 18.8331L22.6145 19.118L23.0661 19.3078C24.0585 19.7249 25.0372 20.4143 26.1053 21.4488C26.8123 22.1336 27.2438 22.671 27.9373 23.7311C28.2187 24.1614 28.529 24.5731 28.6268 24.6462C28.7246 24.7193 28.8346 24.8722 28.8712 24.9859C28.9078 25.0997 29.0791 25.478 29.2518 25.8267C29.8221 26.9779 29.9062 27.9255 29.4836 28.4406C29.282 28.6862 28.7508 28.885 28.3888 28.8502C28.0533 28.8179 27.8555 28.6535 27.6859 28.2657C27.4945 27.8279 26.0508 25.6357 25.6041 25.1044C25.011 24.3992 23.116 22.6417 22.2719 22.014C22.0877 21.8771 21.8279 21.6579 21.6944 21.5268L21.4518 21.2887L21.0321 21.9104C20.8013 22.2523 20.4011 22.9643 20.1427 23.4927C19.5273 24.7512 19.0514 25.5539 18.3168 26.5721C17.5711 27.6057 17.4623 27.7956 17.1676 28.5781C17.0378 28.9228 16.8301 29.3785 16.7061 29.5908C16.4916 29.958 16.1885 30.7649 16.2437 30.8216C16.258 30.8362 16.5965 30.893 16.996 30.9477C17.545 31.0229 18.2443 31.0495 19.859 31.0565C21.6974 31.0646 22.11 31.0835 22.8151 31.1918C23.8876 31.3566 24.1564 31.378 26.058 31.4501C27.6289 31.5096 28.7284 31.6172 29.3127 31.7685C29.4799 31.8118 29.8077 31.834 30.0772 31.8203L30.549 31.7962L30.6158 31.3263C30.6962 30.7606 30.9417 30.0878 31.2302 29.6432C31.3468 29.4634 31.787 28.9687 32.2084 28.5439L32.9747 27.7714L32.8026 27.4932C32.5732 27.1223 32.3885 26.6537 32.1015 25.7141C31.8467 24.8797 31.3029 23.5415 30.9328 22.8378C30.8085 22.6013 30.5321 22.0034 30.3188 21.5092C30.1055 21.0151 29.7621 20.2698 29.5557 19.8529C29.1391 19.0115 28.6754 17.8328 28.437 17.0085C28.351 16.7114 28.1216 16.1035 27.9273 15.6577C27.4667 14.6008 26.663 12.8959 26.6255 12.8959C26.6094 12.8959 26.4409 13.081 26.2511 13.3072ZM35.0493 29.8867C34.9849 29.9151 34.8597 29.9402 34.771 29.9425C34.651 29.9457 34.4925 30.0663 34.1504 30.4148C33.6844 30.8895 33.572 31.0999 33.4698 31.6878C33.4497 31.8034 33.3917 31.9981 33.3409 32.1204C33.2524 32.3334 33.2549 32.3588 33.4005 32.7208C33.4841 32.9286 33.5821 33.2203 33.6183 33.3689C33.6545 33.5175 33.7307 33.6931 33.7876 33.7592C33.8445 33.8252 34.0045 34.0548 34.1432 34.2695C34.2818 34.4841 34.4777 34.7434 34.5784 34.8456C34.7527 35.0226 34.792 35.0337 35.4029 35.079C36.4271 35.155 36.5589 35.145 36.9192 34.9641C37.4998 34.6728 37.7895 34.1419 38.0326 32.9234C38.1497 32.3366 38.1551 32.2394 38.0844 31.9984C37.9377 31.4983 37.1574 30.6245 36.5307 30.2583C35.938 29.9121 35.3349 29.7608 35.0493 29.8867Z" fill="#95C475"/>
</svg>
